:SAMPLES-PER-SECOND 30
:FULLY-SPECIFIED
:DEGREES
445
root  8.45199 38.2309 -5.57128 -6.37079 39.0517 -3.89705
RightUpLeg  15.4153 -6.60474 6.7039
RightLeg  10.6297 -1.26498 1.67077
RightFoot  -19.2539 -0.485805 -5.149
RightToes  -8.73116e-010 0 -3.6325e-017
Spine  11.323 1.57892 13.6826
Spine1  6.58652 4.47402 -6.95464
HEad  -23.0192 30.8745 -8.24243
LeftShoulder1  -0.64256 5.17764 -32.245
LeftArm  0.74653 13.7465 -39.4699
LeftForeArm  18.4551 -20.3862 -4.3806
LeftHand  -0.0433739 2.40909 1.23027
RightShoulder  -0.543022 -5.09821 27.2611
RightArm  21.3826 -0.925467 48.664
RightForeArm  1.63655 20.2078 5.01082
RightHand  -0.433833 4.57949 -5.33512
LeftUpLeg  -15.7228 0.913027 -5.58449
LeftLeg  0.126377 23.1916 -3.63717
LeftFoot  -4.42243 0.416727 -6.47083
LeftToes  -5.63919e-011 3.32596e-011 1.92487e-011
446
root  9.09633 37.8195 -4.22026 -6.87463 39.6119 -4.65004
RightUpLeg  17.2425 -9.20783 6.22252
RightLeg  12.6134 1.29897 2.78097
RightFoot  -21.0351 -0.513996 -4.38908
RightToes  -8.73116e-010 0 -3.6325e-017
Spine  10.5161 2.14575 12.735
Spine1  6.87918 4.9061 -6.77925
HEad  -24.0041 30.9394 -7.6896
LeftShoulder1  -0.674612 5.2632 -32.1934
LeftArm  0.654802 14.1334 -38.83
LeftForeArm  17.1722 -21.5874 -4.17249
LeftHand  -0.04388 2.93827 1.38346
RightShoulder  -0.60147 -5.23918 27.9201
RightArm  20.9331 -2.12887 48.711
RightForeArm  2.22166 18.6752 5.32784
RightHand  -0.496659 4.84649 -5.93181
LeftUpLeg  -15.9397 1.60189 -6.85528
LeftLeg  2.85114 23.8078 -3.32309
LeftFoot  -5.27288 0.287857 -4.7311
LeftToes  -5.63919e-011 3.32596e-011 1.92487e-011
447
root  9.78448 37.531 -2.84068 -6.29034 39.6228 -4.29927
RightUpLeg  18.4146 -15.5558 2.7229
RightLeg  16.7756 9.71212 4.69215
RightFoot  -21.7847 -0.386739 -2.70707
RightToes  -8.73116e-010 0 -3.6325e-017
Spine  9.61043 3.02626 10.8278
Spine1  7.12187 5.68475 -6.83304
HEad  -24.8854 30.9505 -6.93012
LeftShoulder1  -0.717059 5.36656 -32.3212
LeftArm  -0.593206 14.7542 -37.9146
LeftForeArm  16.9641 -22.4801 -4.08517
LeftHand  -0.0464468 2.25959 1.29883
RightShoulder  -0.623641 -5.28226 28.3395
RightArm  20.309 -3.82093 48.9421
RightForeArm  3.84739 17.2626 5.69664
RightHand  -0.455927 5.29486 -5.25901
LeftUpLeg  -17.8285 3.82481 -9.25288
LeftLeg  9.12656 18.4858 -0.909727
LeftFoot  -4.04395 -0.417046 6.24503
LeftToes  -5.63919e-011 3.32596e-011 1.92487e-011
448
root  10.5317 37.3088 -1.59715 -5.46466 39.6875 -2.72763
RightUpLeg  17.7635 -21.3714 -3.05141
RightLeg  26.9858 18.8444 9.84728
RightFoot  -20.3892 -0.0276653 1.51876
RightToes  -8.73116e-010 0 -3.6325e-017
Spine  10.0546 3.45368 8.47479
Spine1  6.54081 6.05646 -7.39308
HEad  -26.2314 31.2043 -6.94142
LeftShoulder1  -0.793853 5.52144 -33.1925
LeftArm  -1.03512 14.9327 -36.3615
LeftForeArm  15.8916 -22.6929 -4.14213
LeftHand  -0.0553465 2.45358 1.70795
RightShoulder  -0.62196 -5.26678 28.5466
RightArm  19.7643 -4.48076 49.5887
RightForeArm  6.60924 14.8998 6.51533
RightHand  -0.432176 4.61821 -5.28944
LeftUpLeg  -19.8439 5.65029 -12.4772
LeftLeg  16.3787 17.1082 3.76874
LeftFoot  -1.67912 -1.28013 15.4529
LeftToes  -5.63919e-011 3.32596e-011 1.92487e-011
449
root  11.2643 37.0286 -0.524543 -4.58588 41.2513 -0.976028
RightUpLeg  13.0275 -21.3523 -7.01313
RightLeg  42.4397 20.6889 18.8351
RightFoot  -14.251 0.0916194 10.2671
RightToes  -8.73116e-010 0 -3.6325e-017
Spine  11.4619 3.06788 6.73872
Spine1  4.98307 5.53717 -8.48854
HEad  -27.181 31.1329 -7.59515
LeftShoulder1  -0.718416 5.3393 -32.9337
LeftArm  -2.13988 14.498 -36.6687
LeftForeArm  15.5352 -20.6964 -4.30406
LeftHand  -0.0579355 2.37688 1.79069
RightShoulder  -0.606998 -5.23305 28.3633
RightArm  17.8183 -4.6056 50.5906
RightForeArm  10.9046 11.8646 7.37927
RightHand  -0.352541 4.38249 -4.46808
LeftUpLeg  -20.6978 5.77543 -15.2784
LeftLeg  22.5071 14.5401 7.08534
LeftFoot  -3.51227 -1.15 17.0186
LeftToes  -5.63919e-011 3.32596e-011 1.92487e-011
450
root  11.921 36.7302 0.304084 -3.70581 42.0202 1.03136
RightUpLeg  5.47968 -16.0458 -8.67759
RightLeg  56.8995 17.928 26.7678
RightFoot  -4.19246 -1.2394 19.8977
RightToes  -8.73116e-010 0 -3.6325e-017
Spine  13.3418 3.24328 5.82576
Spine1  4.3851 5.80133 -10.4867
HEad  -27.8144 30.2206 -8.91601
LeftShoulder1  -0.544135 4.92025 -32.2808
LeftArm  -3.04826 13.0837 -37.9992
LeftForeArm  16.2336 -18.0154 -4.87407
LeftHand  -0.0785231 2.65721 2.80012
RightShoulder  -0.529754 -5.03245 27.8085
RightArm  16.2876 -5.48106 51.0483
RightForeArm  13.0081 11.1532 7.26894
RightHand  -0.353574 4.02588 -4.64054
LeftUpLeg  -20.4538 5.34764 -16.8842
LeftLeg  26.6888 14.9238 8.34997
LeftFoot  -6.17889 -0.799528 18.3373
LeftToes  -5.63919e-011 3.32596e-011 1.92487e-011
